<svg xmlns:dc="http://purl.org/dc/elements/1.1/" xmlns:cc="http://creativecommons.org/ns#" xmlns:rdf="http://www.w3.org/1999/02/22-rdf-syntax-ns#" xmlns:svg="http://www.w3.org/2000/svg" xmlns="http://www.w3.org/2000/svg" xmlns:sodipodi="http://sodipodi.sourceforge.net/DTD/sodipodi-0.dtd" xmlns:inkscape="http://www.inkscape.org/namespaces/inkscape" width="1024" height="1024" version="1.1" inkscape:version="0.91 r13725" sodipodi:docname="mokee_head.svg" inkscape:export-filename="D:\temp\cloud\cid_head.png" inkscape:export-xdpi="90" inkscape:export-ydpi="90" style=""><rect id="backgroundrect" width="100%" height="100%" x="0" y="0" fill="none" stroke="none"/>
  <defs id="defs4342"/>
  <sodipodi:namedview id="base" pagecolor="#ffffff" bordercolor="#666666" borderopacity="1.0" inkscape:pageopacity="0.0" inkscape:pageshadow="2" inkscape:zoom="0.79980469" inkscape:cx="367.33921" inkscape:cy="270.55861" inkscape:document-units="px" inkscape:current-layer="layer1" showgrid="false" inkscape:window-width="1440" inkscape:window-height="798" inkscape:window-x="0" inkscape:window-y="0" inkscape:window-maximized="1"/>
  <metadata id="metadata4345">
    <rdf:RDF>
      <cc:Work rdf:about="">
        <dc:format>image/svg+xml</dc:format>
        <dc:type rdf:resource="http://purl.org/dc/dcmitype/StillImage"/>
        <dc:title/>
      </cc:Work>
    </rdf:RDF>
  </metadata>
  
  <style id="style3" type="text/css">
	.st0{fill:none;}
	.st1{fill:#FF0013;}
	.st2{fill:#FC0606;}
</style>
<g class="currentLayer" style=""><title>Layer 1</title><g inkscape:label="Layer 1" inkscape:groupmode="layer" id="layer1" class="">
    <g id="g5" style="fill:#333333">
      <path id="path11" d="M92.10353810975052,47.09021101135687 L116.73346430975052,267.3993277125732 C54.564140144212914,341.45896787257317 17.70284990958251,433.6924700324052 17.70284990958251,533.5710673124051 c0,244.77050795999997 221.32961268,443.3386716 494.2971396,443.3386716 c272.96752691999995,0 494.2971396,-198.56816364 494.2971396,-443.3386716 C1006.2971291095824,433.6924700324052 969.4358456694146,341.45896787257317 907.2665147094144,267.3993277125732 L931.7272418094984,47.09021101135687 L734.1072453974185,137.33247536316122 c-0.03346272732000006,-0.015287540400000034 -0.06607614684000016,-0.03125452704000008 -0.09953887416000017,-0.04637220588000008 C667.2521474155704,107.2204711480332 591.8349227095825,90.06319661248915 511.99998950958246,90.06319661248915 c-79.8349332,0 -155.252140919832,16.987480920168 -222.00773399983197,47.222838600168 c-0.062339192520000114,0.02819701896000005 -0.12348935412000005,0.05809265352000011 -0.18577758817200027,0.08628967248000019 L92.10353810975052,47.09021101135687 zm813.6368723999999,346.3450693010484 c-0.16986156000000013,0.16986156000000013 -53.337192300084,84.0814722 -122.131124100084,129.0947856 c-67.94462399999999,44.33386716 -114.318154800168,4.417063020084 -139.797388800168,-38.38805009991599 L700.7155202094984,464.4387373125732 c3.9068158799999995,10.701278279999999 14.09850948,18.346373400167998 26.3285418,18.346373400167998 c15.457401959999999,0 28.027157399999997,-12.56975544 28.027157399999997,-28.027157399999997 c0,-3.05750808 -0.5075972997480002,-5.947804440335999 -1.3569050997479999,-8.665589400336 l152.02609619999998,-52.6570836 zm-787.3083306,0.17251140033600026 l152.02609619999998,52.6570836 c-0.8493078000000005,2.71778496 -1.360217400168,5.6047690199160005 -1.360217400168,8.662277099916 c0,15.457401959999999 12.56975544,28.027157399999997 28.027157399999997,28.027157399999997 c12.060170759999998,0 22.421725919999997,-7.6450951201679995 26.3285418,-18.346373400167998 l56.9036226,19.703278499916 c-25.479233999999998,42.805113119999994 -71.852764800168,82.72522956033599 -139.797388800168,38.39136240033599 c-68.96379336,-45.18317496 -122.12781179966399,-129.0947856 -122.12781179966399,-129.0947856 zM511.99998950958246,538.1593168126572 c122.47018475999998,0 221.838534899916,59.619420179748 221.838534899916,132.999614099748 C733.8385244094985,744.5391248324052 634.4701742695826,804.1618573125731 511.99998950958246,804.1618573125731 c-122.47018475999998,0 -221.838534899916,-59.622732480168 -221.838534899916,-133.002926400168 c0,-73.55005548 99.36835013991599,-132.999614099748 221.838534899916,-132.999614099748 zm-82.552055699916,99.36901259999999 c-21.57241812,0 -38.898959700084,17.326541580084 -38.898959700084,38.898959700084 c0,21.402556559999997 17.326541580084,38.895647399664 38.898959700084,38.895647399664 c21.402556559999997,0 38.898959700084,-17.493090839664 38.898959700084,-38.895647399664 c0,-21.57241812 -17.326541580084,-38.898959700084 -38.898959700084,-38.898959700084 zm165.104111399832,0 c-21.57241812,0 -38.898959700084,17.326541580084 -38.898959700084,38.898959700084 c0,21.402556559999997 17.326541580084,38.895647399664 38.898959700084,38.895647399664 c21.57241812,0 38.898959700084,-17.493090839664 38.898959700084,-38.895647399664 c0,-21.57241812 -17.496403140084,-38.898959700084 -38.898959700084,-38.898959700084 z" inkscape:connector-curvature="0" style="fill:#333333" stroke-width="0"/>
    </g>
  </g></g></svg>