<?xml version="1.0" encoding="UTF-8" standalone="no"?>
<!-- Created with Inkscape (http://www.inkscape.org/) -->

<svg
   xmlns:dc="http://purl.org/dc/elements/1.1/"
   xmlns:cc="http://creativecommons.org/ns#"
   xmlns:rdf="http://www.w3.org/1999/02/22-rdf-syntax-ns#"
   xmlns:svg="http://www.w3.org/2000/svg"
   xmlns="http://www.w3.org/2000/svg"
   xmlns:sodipodi="http://sodipodi.sourceforge.net/DTD/sodipodi-0.dtd"
   xmlns:inkscape="http://www.inkscape.org/namespaces/inkscape"
   width="1024"
   height="1024"
   id="svg4340"
   version="1.1"
   inkscape:version="0.91 r13725"
   viewBox="0 0 4096 0"
   sodipodi:docname="mokee_head.svg"
   inkscape:export-filename="D:\temp\cloud\cid_head.png"
   inkscape:export-xdpi="90"
   inkscape:export-ydpi="90">
  <defs
     id="defs4342" />
  <sodipodi:namedview
     id="base"
     pagecolor="#ffffff"
     bordercolor="#666666"
     borderopacity="1.0"
     inkscape:pageopacity="0.0"
     inkscape:pageshadow="2"
     inkscape:zoom="0.79980469"
     inkscape:cx="367.33921"
     inkscape:cy="270.55861"
     inkscape:document-units="px"
     inkscape:current-layer="layer1"
     showgrid="false"
     inkscape:window-width="1440"
     inkscape:window-height="798"
     inkscape:window-x="0"
     inkscape:window-y="0"
     inkscape:window-maximized="1" />
  <metadata
     id="metadata4345">
    <rdf:RDF>
      <cc:Work
         rdf:about="">
        <dc:format>image/svg+xml</dc:format>
        <dc:type
           rdf:resource="http://purl.org/dc/dcmitype/StillImage" />
        <dc:title />
      </cc:Work>
    </rdf:RDF>
  </metadata>
  <g
     inkscape:label="Layer 1"
     inkscape:groupmode="layer"
     id="layer1"
     transform="translate(0,312)">
    <g
       id="g5"
       transform="matrix(1.6986156,0,0,1.6986156,-82.51546,-394.51546)"
       style="fill:#333333">
      <path
         id="path11"
         d="M 102.80078,76.300781 117.30078,206 C 80.700784,249.6 59,303.89922 59,362.69922 c 0,144.1 130.3,261 291,261 160.7,0 291,-116.9 291,-261 C 641,303.89922 619.29922,249.6 582.69922,206 L 597.09961,76.300781 480.75781,129.42773 c -0.0197,-0.009 -0.0389,-0.0184 -0.0586,-0.0273 C 441.39923,111.70035 397,101.59961 350,101.59961 c -47,0 -91.39922,10.00078 -130.69922,27.80078 -0.0367,0.0166 -0.0727,0.0342 -0.10937,0.0508 L 102.80078,76.300781 Z m 479,203.898439 c -0.1,0.1 -31.40039,49.5 -71.90039,76 -40,26.1 -67.30078,2.60039 -82.30078,-22.59961 L 461.09961,322 c 2.3,6.3 8.3,10.80078 15.5,10.80078 9.1,0 16.5,-7.4 16.5,-16.5 0,-1.8 -0.29883,-3.50156 -0.79883,-5.10156 l 89.5,-31 z m -463.5,0.10156 89.5,31 c -0.5,1.6 -0.80078,3.29961 -0.80078,5.09961 0,9.1 7.4,16.5 16.5,16.5 7.1,0 13.2,-4.50078 15.5,-10.80078 l 33.5,11.59961 c -15,25.2 -42.30078,48.70156 -82.30078,22.60156 -40.6,-26.6 -71.89844,-76 -71.89844,-76 z M 350,365.40039 c 72.1,0 130.59961,35.09883 130.59961,78.29883 C 480.59961,486.89922 422.1,522 350,522 c -72.1,0 -130.59961,-35.10078 -130.59961,-78.30078 0,-43.3 58.49961,-78.29883 130.59961,-78.29883 z m -48.59961,58.5 c -12.7,0 -22.90039,10.20039 -22.90039,22.90039 0,12.6 10.20039,22.89844 22.90039,22.89844 12.6,0 22.90039,-10.29844 22.90039,-22.89844 0,-12.7 -10.20039,-22.90039 -22.90039,-22.90039 z m 97.19922,0 c -12.7,0 -22.90039,10.20039 -22.90039,22.90039 0,12.6 10.20039,22.89844 22.90039,22.89844 12.7,0 22.90039,-10.29844 22.90039,-22.89844 0,-12.7 -10.30039,-22.90039 -22.90039,-22.90039 z"
         inkscape:connector-curvature="0"
         style="fill:#333333" />
    </g>
  </g>
  <style
     id="style3"
     type="text/css">
	.st0{fill:none;}
	.st1{fill:#FF0013;}
	.st2{fill:#FC0606;}
</style>
</svg>
